<?xml version="1.0" encoding="UTF-8"?><svg id="FV_Empty_cascade_motherlayer_2pt" xmlns="http://www.w3.org/2000/svg" xmlns:xlink="http://www.w3.org/1999/xlink" viewBox="0 0 917.16 848.67"><defs><style>.cls-1,.cls-2,.cls-3,.cls-4,.cls-5{fill:none;}.cls-6{letter-spacing:.03em;}.cls-7{letter-spacing:-.01em;}.cls-8{clip-path:url(#clippath);}.cls-9,.cls-10,.cls-11{fill:#fff;}.cls-12{letter-spacing:-.02em;}.cls-13{clip-path:url(#clippath-1);}.cls-14{clip-path:url(#clippath-2);}.cls-15{letter-spacing:-.08em;}.cls-2{stroke-width:2.13px;}.cls-2,.cls-3,.cls-4{stroke:#fff;stroke-miterlimit:10;}.cls-2,.cls-3,.cls-5{stroke-linecap:round;}.cls-3,.cls-4{stroke-width:2px;}.cls-16{letter-spacing:-.1em;}.cls-10,.cls-11{font-family:Poppins-Regular, Poppins;font-size:9.52px;}.cls-17,.cls-11{letter-spacing:-.03em;}.cls-18{letter-spacing:-.05em;}.cls-19{letter-spacing:-.05em;}.cls-5{stroke:#aca277;stroke-width:.83px;}</style><clipPath id="clippath"><path class="cls-1" d="M107.74,379.98c.02-.15,.04-.3,.06-.44-.02,.15-.04,.29-.06,.44Z"/></clipPath><clipPath id="clippath-1"><rect class="cls-1" x="100.15" y="370.91" width="9.65" height="9.65" transform="translate(-228.03 172.51) rotate(-43)"/></clipPath><clipPath id="clippath-2"><rect class="cls-1" x="106.73" y="377.96" width="9.65" height="9.65" transform="translate(-231.07 178.88) rotate(-42.99)"/></clipPath></defs><circle class="cls-4" cx="141.1" cy="424.15" r="45.36"/><g><polyline class="cls-3" points="190.19 398.3 916.16 398.3 916.16 439.46 194.29 439.46"/><path class="cls-3" d="M76.86,398.3c12.49-58.54,64.5-102.45,126.77-102.45,71.59,0,129.62,58.04,129.62,129.62,0,35.52-14.29,67.7-37.43,91.11"/><path class="cls-3" d="M81.4,468.71c-3.29-9.31-5.55-19.11-6.64-29.25"/><path class="cls-3" d="M274.79,533.83c-20.42,13.44-44.88,21.26-71.16,21.26-51.17,0-95.42-29.65-116.49-72.71"/><path class="cls-3" d="M65.79,398.29c12.53-82.03,83.38-144.86,168.91-144.86,94.37,0,170.87,76.5,170.87,170.87s-76.5,170.87-170.87,170.87c-73.98,0-136.98-47.01-160.75-112.8"/><path class="cls-3" d="M69.65,468.72c-2.27-8.47-3.91-17.2-4.86-26.14-.11-1.04-.21-2.08-.3-3.12"/><path class="cls-3" d="M52.01,398.3c12.73-106.17,103.12-188.47,212.72-188.47,118.33,0,214.26,95.93,214.26,214.26,0,56.9-22.18,108.61-58.36,146.98"/><path class="cls-3" d="M55.12,468.71c-2.02-9.53-3.41-19.3-4.11-29.25"/><path class="cls-3" d="M402.34,588.31c-37.22,31.23-85.22,50.03-137.62,50.03-98.13,0-180.85-65.97-206.23-155.97"/><path class="cls-3" d="M40.36,398.44c13.12-129.19,122.22-230,254.87-230,141.49,0,256.19,114.7,256.19,256.19,0,56.9-18.55,109.47-49.94,151.99"/><path class="cls-3" d="M42.82,468.71c-1.66-9.58-2.79-19.34-3.36-29.26"/><path class="cls-3" d="M492.33,588.31c-46.99,56.53-117.85,92.52-197.1,92.52-121.63,0-223.47-84.77-249.66-198.45"/><path class="cls-3" d="M30.58,398.3C44.1,246.39,171.71,127.3,327.14,127.3c164.44,0,297.75,133.31,297.75,297.75,0,77.05-29.26,147.26-77.29,200.13"/><path class="cls-3" d="M32.57,468.71c-1.41-9.61-2.37-19.37-2.84-29.25"/><path class="cls-3" d="M530.62,642.42c-53.23,49.85-124.79,80.37-203.48,80.37-144.83,0-265.51-103.41-292.23-240.42"/><path class="cls-3" d="M19.67,398.3C33.32,223.9,179.15,86.65,357.05,86.65c186.9,0,338.42,151.51,338.42,338.42,0,74.87-24.31,144.06-65.47,200.11"/><path class="cls-3" d="M21.42,468.71c-1.24-9.63-2.08-19.39-2.49-29.25"/><path class="cls-3" d="M616.45,642.42c-62.08,74.01-155.24,121.06-259.4,121.06-167.37,0-306.36-121.5-333.59-281.11"/><path class="cls-3" d="M10.62,398.3C24.15,200.63,188.78,44.49,389.88,44.49s380.17,170.21,380.17,380.16-170.21,380.17-380.17,380.17S17.78,642.55,10,439.46"/><circle class="cls-3" cx="424.33" cy="424.33" r="423.33" transform="translate(-175.77 424.33) rotate(-45)"/><line class="cls-4" x1="85.79" y1="439.46" x2="1.29" y2="439.46"/><line class="cls-4" x1="1.79" y1="398.3" x2="89.09" y2="398.3"/><rect class="cls-3" x="251.59" y="516.58" width="113.48" height="17.25"/><g><path class="cls-9" d="M255.13,519.65h2.82v7.29h2.01v.81h-4.88v-.81h1.96v-6.48h-1.91v-.81Z"/><path class="cls-9" d="M261.76,524.81c0-2.01,1.28-3.11,2.7-3.11s2.65,1.1,2.65,3.11-1.18,3.11-2.65,3.11-2.7-1.1-2.7-3.11Zm4.42,0c0-1.49-.74-2.29-1.72-2.29s-1.77,.78-1.77,2.29,.78,2.29,1.77,2.29,1.72-.8,1.72-2.29Z"/><path class="cls-9" d="M274.44,525.67c-.19,1.37-1.15,2.24-2.45,2.24-1.54,0-2.7-1.13-2.7-3.11s1.22-3.11,2.7-3.11c1.28,0,2.22,.89,2.41,2.15l-.85,.18c-.16-.78-.6-1.51-1.55-1.51-1.03,0-1.78,.81-1.78,2.29s.69,2.29,1.79,2.29c.94,0,1.45-.82,1.56-1.6l.88,.18Z"/><path class="cls-9" d="M280.36,527.1h-.02c-.17,.29-.74,.81-1.8,.81-1.38,0-2.01-.78-2.01-1.68,0-.98,.57-1.48,2-1.84,1.05-.27,1.69-.45,1.69-1.03,0-.47-.46-.86-1.23-.86-.92,0-1.29,.51-1.43,1.17l-.84-.24c.18-.99,.97-1.73,2.24-1.73s2.23,.7,2.23,1.85v4.2h-.82v-.64Zm-2.92-.92c0,.53,.29,.92,1.17,.92,1.12,0,1.66-.59,1.66-1.24v-1.47h-.02c-.08,.17-.3,.37-1.51,.7-1.06,.29-1.3,.6-1.3,1.09Z"/><path class="cls-9" d="M283.99,519.65h2.82v7.29h2.01v.81h-4.88v-.81h1.96v-6.48h-1.91v-.81Z"/><path class="cls-9" d="M303.04,526.42c-.39,.77-1.18,1.5-2.47,1.5-1.58,0-2.75-1.2-2.75-3.11s1.15-3.11,2.71-3.11,2.66,1.14,2.66,3.11v.27h-4.44c.01,1.04,.58,2.02,1.8,2.02s1.53-.78,1.74-1.17l.74,.49Zm-.77-2.06c-.02-.86-.47-1.83-1.74-1.83s-1.74,1.11-1.75,1.83h3.5Z"/><path class="cls-9" d="M310.51,525.67c-.19,1.37-1.15,2.24-2.45,2.24-1.54,0-2.7-1.13-2.7-3.11s1.22-3.11,2.7-3.11c1.28,0,2.22,.89,2.41,2.15l-.85,.18c-.16-.78-.6-1.51-1.55-1.51-1.03,0-1.78,.81-1.78,2.29s.69,2.29,1.79,2.29c.94,0,1.45-.82,1.56-1.6l.88,.18Z"/><path class="cls-9" d="M312.26,524.81c0-2.01,1.28-3.11,2.7-3.11s2.65,1.1,2.65,3.11-1.18,3.11-2.65,3.11-2.7-1.1-2.7-3.11Zm4.42,0c0-1.49-.74-2.29-1.72-2.29s-1.77,.78-1.77,2.29,.78,2.29,1.77,2.29,1.72-.8,1.72-2.29Z"/><path class="cls-9" d="M320.53,525.58c.13,1.02,.72,1.54,1.88,1.54s1.54-.4,1.54-.93-.17-.77-1.88-1.2c-1.89-.48-2.22-.94-2.2-1.73,.02-.76,.75-1.56,2.21-1.56s2.21,.73,2.46,1.64l-.81,.27c-.23-.68-.71-1.13-1.64-1.13s-1.33,.43-1.33,.77c0,.44,.02,.62,1.85,1.09,2.04,.52,2.14,1.01,2.18,1.86,.03,.85-.6,1.72-2.38,1.72s-2.62-1-2.75-2.16l.87-.17Z"/><path class="cls-9" d="M328.83,527.31l-2.29-5.44h.98l1.74,4.27h.02l1.56-4.27h.96l-3.16,8.38h-.92l1.11-2.94Z"/><path class="cls-9" d="M334.96,525.58c.13,1.02,.72,1.54,1.87,1.54s1.54-.4,1.54-.93-.17-.77-1.88-1.2c-1.89-.48-2.22-.94-2.2-1.73,.02-.76,.75-1.56,2.21-1.56s2.21,.73,2.46,1.64l-.81,.27c-.23-.68-.71-1.13-1.64-1.13s-1.33,.43-1.33,.77c0,.44,.02,.62,1.85,1.09,2.04,.52,2.14,1.01,2.18,1.86,.03,.85-.6,1.72-2.38,1.72s-2.62-1-2.75-2.16l.87-.17Z"/><path class="cls-9" d="M343.12,522.68h-1.88v-.81h1.89v-1.44h.89v1.44h2.12v.81h-2.11v3.25c0,.65,.12,.94,.72,.94h1v.88h-1.04c-1.14,0-1.59-.61-1.59-1.71v-3.36Z"/><path class="cls-9" d="M353.55,526.42c-.39,.77-1.18,1.5-2.47,1.5-1.58,0-2.75-1.2-2.75-3.11s1.15-3.11,2.71-3.11,2.66,1.14,2.66,3.11v.27h-4.44c.01,1.04,.58,2.02,1.8,2.02s1.53-.78,1.74-1.17l.74,.49Zm-.77-2.06c-.02-.86-.47-1.83-1.74-1.83s-1.74,1.11-1.75,1.83h3.5Z"/><path class="cls-9" d="M355.75,521.87h.82v.57h.02c.15-.42,.51-.73,.94-.73,.64,0,.93,.43,1.05,.87h.02c.14-.41,.52-.87,1.17-.87,1.02,0,1.33,.79,1.33,2.04v4.01h-.84v-3.73c0-.98-.11-1.49-.65-1.49s-.77,.52-.77,1.41v3.81h-.81v-3.73c0-.98-.12-1.49-.68-1.49s-.77,.65-.77,1.41v3.81h-.84v-5.88Z"/></g><rect class="cls-3" x="379.14" y="571.06" width="122.34" height="17.25"/><g><path class="cls-9" d="M385.06,583.17c.22,.61,.58,1.2,1.52,1.2s1.49-.59,1.49-1.58v-.79h-.02c-.27,.31-.77,.68-1.63,.68-1.53,0-2.61-1.19-2.61-3.11s1.17-3.11,2.6-3.11c.74,0,1.3,.29,1.65,.73h.02v-.57h.9v5.97c0,1.71-.93,2.58-2.38,2.58-1.25,0-2.02-.69-2.33-1.6l.79-.41Zm3.01-4.45c0-.67-.54-1.43-1.52-1.43-1.16,0-1.81,.85-1.81,2.29s.63,2.29,1.81,2.29c.89,0,1.52-.61,1.52-1.28v-1.86Z"/><path class="cls-9" d="M391.66,574.41h2.82v7.29h2.01v.81h-4.88v-.81h1.96v-6.48h-1.91v-.81Z"/><path class="cls-9" d="M398.29,579.57c0-2.01,1.28-3.11,2.7-3.11s2.65,1.1,2.65,3.11-1.18,3.11-2.65,3.11-2.7-1.1-2.7-3.11Zm4.42,0c0-1.49-.74-2.29-1.72-2.29s-1.77,.78-1.77,2.29,.78,2.29,1.77,2.29,1.72-.8,1.72-2.29Z"/><path class="cls-9" d="M405.95,574.41h.91v2.79h.02c.3-.36,.84-.73,1.63-.73,1.47,0,2.58,1.22,2.58,3.11s-1.02,3.11-2.58,3.11c-.88,0-1.48-.44-1.72-.73h-.02v.57h-.82v-8.1Zm.91,6.15c0,.68,.62,1.3,1.51,1.3,1.18,0,1.79-.85,1.79-2.29s-.61-2.29-1.79-2.29c-.98,0-1.51,.78-1.51,1.45v1.82Z"/><path class="cls-9" d="M416.89,581.87h-.02c-.17,.29-.74,.81-1.8,.81-1.38,0-2.01-.78-2.01-1.68,0-.98,.57-1.48,2-1.84,1.05-.27,1.69-.45,1.69-1.03,0-.47-.46-.86-1.23-.86-.92,0-1.29,.51-1.43,1.17l-.84-.24c.18-.99,.97-1.73,2.24-1.73s2.23,.7,2.23,1.85v4.2h-.82v-.64Zm-2.92-.92c0,.53,.29,.92,1.17,.92,1.12,0,1.67-.59,1.67-1.24v-1.47h-.02c-.08,.17-.3,.37-1.51,.7-1.06,.29-1.3,.6-1.3,1.09Z"/><path class="cls-9" d="M420.52,574.41h2.82v7.29h2.01v.81h-4.88v-.81h1.97v-6.48h-1.91v-.81Z"/><path class="cls-9" d="M439.57,581.18c-.39,.77-1.18,1.5-2.47,1.5-1.58,0-2.75-1.2-2.75-3.11s1.15-3.11,2.71-3.11,2.66,1.14,2.66,3.11v.27h-4.44c.01,1.04,.58,2.02,1.8,2.02s1.53-.78,1.74-1.17l.74,.49Zm-.77-2.06c-.02-.86-.47-1.83-1.74-1.83s-1.74,1.11-1.75,1.83h3.5Z"/><path class="cls-9" d="M447.04,580.44c-.19,1.37-1.15,2.24-2.45,2.24-1.54,0-2.7-1.13-2.7-3.11s1.22-3.11,2.7-3.11c1.28,0,2.22,.89,2.41,2.15l-.85,.18c-.16-.78-.6-1.51-1.55-1.51-1.03,0-1.78,.81-1.78,2.29s.69,2.29,1.79,2.29c.94,0,1.45-.82,1.56-1.6l.88,.18Z"/><path class="cls-9" d="M448.79,579.57c0-2.01,1.28-3.11,2.7-3.11s2.65,1.1,2.65,3.11-1.18,3.11-2.65,3.11-2.7-1.1-2.7-3.11Zm4.42,0c0-1.49-.74-2.29-1.72-2.29s-1.77,.78-1.77,2.29,.78,2.29,1.77,2.29,1.72-.8,1.72-2.29Z"/><path class="cls-9" d="M457.06,580.35c.13,1.02,.72,1.54,1.88,1.54s1.54-.4,1.54-.93-.17-.77-1.88-1.2c-1.89-.48-2.22-.94-2.2-1.73,.02-.76,.75-1.56,2.21-1.56s2.21,.73,2.46,1.64l-.81,.27c-.23-.68-.71-1.13-1.64-1.13s-1.33,.43-1.33,.77c0,.44,.02,.62,1.85,1.09,2.04,.52,2.14,1.01,2.18,1.86,.03,.85-.6,1.72-2.38,1.72s-2.62-1-2.75-2.16l.87-.17Z"/><path class="cls-9" d="M465.35,582.07l-2.29-5.44h.98l1.74,4.27h.02l1.56-4.27h.95l-3.16,8.38h-.92l1.11-2.94Z"/><path class="cls-9" d="M471.49,580.35c.13,1.02,.72,1.54,1.87,1.54s1.54-.4,1.54-.93-.17-.77-1.88-1.2c-1.89-.48-2.22-.94-2.2-1.73,.02-.76,.75-1.56,2.21-1.56s2.21,.73,2.46,1.64l-.81,.27c-.23-.68-.71-1.13-1.64-1.13s-1.33,.43-1.33,.77c0,.44,.02,.62,1.85,1.09,2.04,.52,2.14,1.01,2.18,1.86,.03,.85-.6,1.72-2.38,1.72s-2.62-1-2.75-2.16l.87-.17Z"/><path class="cls-9" d="M479.65,577.44h-1.88v-.81h1.89v-1.44h.89v1.44h2.12v.81h-2.11v3.25c0,.66,.12,.94,.72,.94h1v.88h-1.04c-1.14,0-1.59-.61-1.59-1.71v-3.36Z"/><path class="cls-9" d="M490.07,581.18c-.39,.77-1.18,1.5-2.47,1.5-1.58,0-2.75-1.2-2.75-3.11s1.15-3.11,2.71-3.11,2.66,1.14,2.66,3.11v.27h-4.44c.01,1.04,.58,2.02,1.8,2.02s1.53-.78,1.74-1.17l.74,.49Zm-.77-2.06c-.02-.86-.47-1.83-1.74-1.83s-1.74,1.11-1.75,1.83h3.5Z"/><path class="cls-9" d="M492.28,576.63h.82v.57h.02c.14-.42,.51-.73,.94-.73,.64,0,.93,.43,1.05,.87h.02c.15-.41,.52-.87,1.17-.87,1.02,0,1.33,.79,1.33,2.04v4.01h-.84v-3.73c0-.98-.11-1.49-.65-1.49s-.77,.52-.77,1.41v3.81h-.81v-3.73c0-.98-.12-1.49-.68-1.49s-.77,.65-.77,1.41v3.81h-.84v-5.88Z"/></g><polyline class="cls-3" points="46.54 482.37 18.2 482.37 18.2 468.71 90.23 468.71 90.23 482.37 87.2 482.37"/><g><line class="cls-2" x1="58.49" y1="482.37" x2="45.57" y2="482.37"/><line class="cls-2" x1="87.14" y1="482.37" x2="58.49" y2="482.37"/></g><g><path class="cls-9" d="M22.69,470.68h.91v2.79h.02c.3-.36,.84-.73,1.63-.73,1.47,0,2.57,1.22,2.57,3.11s-1.02,3.11-2.57,3.11c-.88,0-1.48-.44-1.72-.73h-.02v.57h-.82v-8.1Zm.91,6.15c0,.68,.62,1.3,1.51,1.3,1.18,0,1.79-.85,1.79-2.29s-.61-2.29-1.79-2.29c-.98,0-1.51,.78-1.51,1.45v1.82Z"/><path class="cls-9" d="M29.97,472.9h2.89v5.11h1.94v.78h-4.88v-.78h2.04v-4.33h-1.99v-.78Zm1.92-2.22h1.04v1.03h-1.04v-1.03Z"/><path class="cls-9" d="M36.67,475.84c0-2.01,1.28-3.11,2.7-3.11s2.65,1.1,2.65,3.11-1.18,3.11-2.65,3.11-2.7-1.1-2.7-3.11Zm4.42,0c0-1.49-.74-2.29-1.72-2.29s-1.77,.78-1.77,2.29,.78,2.29,1.77,2.29,1.72-.8,1.72-2.29Z"/><path class="cls-9" d="M44.94,476.62c.13,1.02,.72,1.54,1.88,1.54s1.54-.4,1.54-.93-.17-.77-1.88-1.2c-1.89-.48-2.22-.94-2.2-1.73,.02-.76,.75-1.56,2.21-1.56s2.21,.73,2.46,1.64l-.81,.27c-.23-.68-.71-1.13-1.64-1.13s-1.33,.43-1.33,.77c0,.44,.02,.62,1.85,1.09,2.04,.52,2.14,1.01,2.18,1.86,.03,.85-.6,1.72-2.38,1.72s-2.62-1-2.75-2.16l.87-.17Z"/><path class="cls-9" d="M51.42,472.9h.87v.57h.02c.24-.31,.84-.73,1.69-.73,1.43,0,2.59,1.19,2.59,3.11s-1.08,3.11-2.59,3.11c-.8,0-1.43-.43-1.64-.73h-.02v3.06h-.91v-8.38Zm.91,3.95c0,.67,.62,1.28,1.51,1.28,1.18,0,1.82-.85,1.82-2.29s-.65-2.29-1.82-2.29c-.97,0-1.51,.77-1.51,1.43v1.86Z"/><path class="cls-9" d="M58.72,470.68h.91v2.81h.02c.32-.43,1-.75,1.72-.75,1.21,0,2.11,.74,2.11,2.21v3.84h-.91v-3.6c0-.99-.41-1.62-1.36-1.62s-1.58,.62-1.58,1.52v3.7h-.91v-8.1Z"/><path class="cls-9" d="M70.74,477.45c-.39,.77-1.18,1.5-2.47,1.5-1.58,0-2.75-1.2-2.75-3.11s1.15-3.11,2.71-3.11,2.66,1.14,2.66,3.11v.27h-4.44c.01,1.04,.58,2.02,1.8,2.02s1.53-.78,1.74-1.17l.74,.49Zm-.77-2.06c-.02-.86-.47-1.83-1.74-1.83s-1.74,1.11-1.75,1.83h3.5Z"/><path class="cls-9" d="M73.86,472.9h.87v.85h.02c.26-.5,.92-.95,1.68-.95,.89,0,1.58,.48,1.89,1.41l-.89,.38c-.17-.55-.53-.87-1.14-.87-.85,0-1.51,.69-1.51,1.79v3.28h-.91v-5.88Z"/><path class="cls-9" d="M85.17,477.45c-.39,.77-1.18,1.5-2.47,1.5-1.58,0-2.75-1.2-2.75-3.11s1.15-3.11,2.71-3.11,2.66,1.14,2.66,3.11v.27h-4.44c.01,1.04,.58,2.02,1.8,2.02s1.53-.78,1.74-1.17l.74,.49Zm-.77-2.06c-.02-.86-.47-1.83-1.74-1.83s-1.74,1.11-1.75,1.83h3.5Z"/></g><rect class="cls-3" x="528.78" y="625.17" width="105.73" height="17.25"/><g><path class="cls-9" d="M535.56,628.46h.91v2.81h.02c.32-.43,1-.75,1.72-.75,1.21,0,2.11,.74,2.11,2.21v3.84h-.91v-3.6c0-.99-.41-1.62-1.37-1.62s-1.58,.62-1.58,1.52v3.7h-.91v-8.1Z"/><path class="cls-9" d="M542.78,630.68h.91v3.7c0,1.1,.39,1.51,1.37,1.51,.89,0,1.38-.58,1.38-1.55v-3.65h.91v5.88h-.9v-.57h-.02s-.5,.73-1.56,.73c-1.27,0-2.08-.7-2.08-2.22v-3.83Z"/><path class="cls-9" d="M549.79,630.68h.82v.57h.02c.15-.42,.51-.73,.94-.73,.64,0,.93,.43,1.05,.87h.02c.15-.41,.52-.87,1.17-.87,1.02,0,1.33,.79,1.33,2.04v4.01h-.84v-3.73c0-.98-.11-1.49-.65-1.49s-.77,.52-.77,1.41v3.81h-.81v-3.73c0-.98-.12-1.49-.68-1.49s-.77,.65-.77,1.41v3.81h-.84v-5.88Z"/><path class="cls-9" d="M560.98,635.92h-.02c-.17,.29-.74,.81-1.8,.81-1.38,0-2.01-.78-2.01-1.68,0-.98,.57-1.48,2-1.84,1.05-.27,1.69-.45,1.69-1.03,0-.47-.46-.86-1.23-.86-.92,0-1.29,.51-1.43,1.17l-.84-.24c.18-.99,.97-1.73,2.24-1.73s2.23,.7,2.23,1.85v4.2h-.82v-.64Zm-2.92-.92c0,.53,.29,.92,1.17,.92,1.12,0,1.67-.59,1.67-1.24v-1.47h-.02c-.08,.17-.3,.37-1.51,.7-1.06,.29-1.3,.6-1.3,1.09Z"/><path class="cls-9" d="M564.38,630.68h.87v.57h.02c.31-.41,.97-.73,1.65-.73,1.26,0,2.11,.82,2.11,2.19v3.86h-.91v-3.57c0-1.07-.41-1.64-1.33-1.64s-1.5,.53-1.5,1.47v3.75h-.91v-5.88Z"/><path class="cls-9" d="M579.51,634.4c.13,1.02,.72,1.54,1.88,1.54s1.54-.4,1.54-.93-.17-.77-1.88-1.2c-1.89-.48-2.22-.94-2.2-1.73,.02-.76,.75-1.56,2.21-1.56s2.21,.73,2.46,1.64l-.81,.27c-.23-.68-.71-1.13-1.64-1.13s-1.33,.43-1.33,.77c0,.44,.02,.62,1.85,1.09,2.04,.52,2.14,1.01,2.18,1.86s-.6,1.72-2.38,1.72-2.62-1-2.75-2.16l.87-.17Z"/><path class="cls-9" d="M587.8,636.12l-2.29-5.44h.98l1.74,4.27h.02l1.56-4.27h.95l-3.16,8.38h-.92l1.11-2.94Z"/><path class="cls-9" d="M593.94,634.4c.13,1.02,.72,1.54,1.88,1.54s1.54-.4,1.54-.93-.17-.77-1.88-1.2c-1.89-.48-2.22-.94-2.2-1.73,.02-.76,.75-1.56,2.21-1.56s2.21,.73,2.46,1.64l-.81,.27c-.23-.68-.71-1.13-1.64-1.13s-1.33,.43-1.33,.77c0,.44,.02,.62,1.85,1.09,2.04,.52,2.14,1.01,2.18,1.86,.03,.85-.6,1.72-2.38,1.72s-2.62-1-2.75-2.16l.87-.17Z"/><path class="cls-9" d="M602.09,631.49h-1.88v-.81h1.89v-1.44h.89v1.44h2.12v.81h-2.11v3.25c0,.65,.12,.94,.72,.94h1v.88h-1.04c-1.14,0-1.59-.61-1.59-1.71v-3.36Z"/><path class="cls-9" d="M612.52,635.23c-.39,.77-1.18,1.5-2.47,1.5-1.58,0-2.75-1.2-2.75-3.11s1.15-3.11,2.71-3.11,2.66,1.14,2.66,3.11v.27h-4.44c.01,1.04,.58,2.02,1.8,2.02s1.53-.78,1.74-1.17l.74,.49Zm-.77-2.06c-.02-.86-.47-1.83-1.74-1.83s-1.74,1.11-1.75,1.83h3.5Z"/><path class="cls-9" d="M614.72,630.68h.82v.57h.02c.15-.42,.51-.73,.94-.73,.64,0,.93,.43,1.05,.87h.02c.15-.41,.52-.87,1.17-.87,1.02,0,1.33,.79,1.33,2.04v4.01h-.84v-3.73c0-.98-.11-1.49-.65-1.49s-.77,.52-.77,1.41v3.81h-.81v-3.73c0-.98-.12-1.49-.68-1.49s-.77,.65-.77,1.41v3.81h-.84v-5.88Z"/><path class="cls-9" d="M622.8,634.4c.13,1.02,.72,1.54,1.88,1.54s1.54-.4,1.54-.93-.17-.77-1.88-1.2c-1.89-.48-2.22-.94-2.2-1.73,.02-.76,.75-1.56,2.21-1.56s2.21,.73,2.46,1.64l-.81,.27c-.23-.68-.71-1.13-1.64-1.13s-1.33,.43-1.33,.77c0,.44,.02,.62,1.85,1.09,2.04,.52,2.14,1.01,2.18,1.86,.03,.85-.6,1.72-2.38,1.72s-2.62-1-2.75-2.16l.87-.17Z"/></g><text/><text/><path class="cls-1" d="M107.71,379.99c.02-.15,.04-.3,.06-.44-.02,.14-.04,.29-.06,.44Z"/><path class="cls-1" d="M107.74,379.98c.02-.15,.04-.3,.06-.44-.02,.15-.04,.29-.06,.44Z"/><g class="cls-8"><g class="cls-13"><line class="cls-5" x1="111.44" y1="375.64" x2="118.55" y2="369.01"/><line class="cls-5" x1="110.13" y1="374.23" x2="117.23" y2="367.6"/><line class="cls-5" x1="108.81" y1="372.82" x2="115.91" y2="366.19"/><line class="cls-5" x1="107.49" y1="371.4" x2="114.6" y2="364.78"/><line class="cls-5" x1="106.18" y1="369.99" x2="113.28" y2="363.37"/><line class="cls-5" x1="110.78" y1="374.93" x2="117.89" y2="368.31"/><line class="cls-5" x1="109.47" y1="373.52" x2="116.57" y2="366.89"/><line class="cls-5" x1="108.15" y1="372.11" x2="115.26" y2="365.48"/><line class="cls-5" x1="106.83" y1="370.7" x2="113.94" y2="364.07"/><line class="cls-5" x1="105.52" y1="369.29" x2="112.62" y2="362.66"/><line class="cls-5" x1="104.38" y1="382.22" x2="111.49" y2="375.59"/><line class="cls-5" x1="103.07" y1="380.81" x2="110.17" y2="374.18"/><line class="cls-5" x1="101.75" y1="379.39" x2="108.86" y2="372.77"/><line class="cls-5" x1="100.44" y1="377.98" x2="107.54" y2="371.36"/><line class="cls-5" x1="99.12" y1="376.57" x2="106.23" y2="369.95"/><line class="cls-5" x1="103.73" y1="381.51" x2="110.83" y2="374.89"/><line class="cls-5" x1="102.41" y1="380.1" x2="109.52" y2="373.48"/><line class="cls-5" x1="101.1" y1="378.69" x2="108.2" y2="372.06"/><line class="cls-5" x1="99.78" y1="377.28" x2="106.88" y2="370.65"/><line class="cls-5" x1="98.46" y1="375.87" x2="105.57" y2="369.24"/><line class="cls-5" x1="97.33" y1="388.8" x2="104.43" y2="382.17"/><line class="cls-5" x1="96.01" y1="387.39" x2="103.12" y2="380.76"/><line class="cls-5" x1="94.7" y1="385.97" x2="101.8" y2="379.35"/><line class="cls-5" x1="93.38" y1="384.56" x2="100.49" y2="377.94"/><line class="cls-5" x1="92.06" y1="383.15" x2="99.17" y2="376.53"/><line class="cls-5" x1="96.67" y1="388.09" x2="103.78" y2="381.47"/><line class="cls-5" x1="95.35" y1="386.68" x2="102.46" y2="380.06"/><line class="cls-5" x1="94.04" y1="385.27" x2="101.14" y2="378.64"/><line class="cls-5" x1="92.72" y1="383.86" x2="99.83" y2="377.23"/><line class="cls-5" x1="91.41" y1="382.45" x2="98.51" y2="375.82"/></g><g class="cls-14"><line class="cls-5" x1="118.02" y1="382.69" x2="125.13" y2="376.07"/><line class="cls-5" x1="116.7" y1="381.28" x2="123.81" y2="374.66"/><line class="cls-5" x1="115.39" y1="379.87" x2="122.49" y2="373.24"/><line class="cls-5" x1="114.07" y1="378.46" x2="121.18" y2="371.83"/><line class="cls-5" x1="112.76" y1="377.05" x2="119.86" y2="370.42"/><line class="cls-5" x1="117.36" y1="381.99" x2="124.47" y2="375.36"/><line class="cls-5" x1="116.05" y1="380.58" x2="123.15" y2="373.95"/><line class="cls-5" x1="114.73" y1="379.17" x2="121.84" y2="372.54"/><line class="cls-5" x1="113.42" y1="377.75" x2="120.52" y2="371.13"/><line class="cls-5" x1="112.1" y1="376.34" x2="119.2" y2="369.72"/><line class="cls-5" x1="110.96" y1="389.27" x2="118.07" y2="382.65"/><line class="cls-5" x1="109.65" y1="387.86" x2="116.76" y2="381.24"/><line class="cls-5" x1="108.33" y1="386.45" x2="115.44" y2="379.83"/><line class="cls-5" x1="107.02" y1="385.04" x2="114.12" y2="378.41"/><line class="cls-5" x1="105.7" y1="383.63" x2="112.81" y2="377"/><line class="cls-5" x1="110.31" y1="388.57" x2="117.41" y2="381.94"/><line class="cls-5" x1="108.99" y1="387.16" x2="116.1" y2="380.53"/><line class="cls-5" x1="107.67" y1="385.75" x2="114.78" y2="379.12"/><line class="cls-5" x1="106.36" y1="384.33" x2="113.46" y2="377.71"/><line class="cls-5" x1="105.04" y1="382.92" x2="112.15" y2="376.3"/><line class="cls-5" x1="103.91" y1="395.86" x2="111.01" y2="389.23"/><line class="cls-5" x1="102.59" y1="394.44" x2="109.7" y2="387.82"/><line class="cls-5" x1="101.28" y1="393.03" x2="108.38" y2="386.41"/><line class="cls-5" x1="99.96" y1="391.62" x2="107.07" y2="384.99"/><line class="cls-5" x1="98.64" y1="390.21" x2="105.75" y2="383.58"/><line class="cls-5" x1="103.25" y1="395.15" x2="110.36" y2="388.52"/><line class="cls-5" x1="101.94" y1="393.74" x2="109.04" y2="387.11"/><line class="cls-5" x1="100.62" y1="392.33" x2="107.73" y2="385.7"/><line class="cls-5" x1="99.3" y1="390.92" x2="106.41" y2="384.29"/><line class="cls-5" x1="97.99" y1="389.5" x2="105.09" y2="382.88"/></g></g><text class="cls-10" transform="translate(255.93 378.38)"><tspan x="0" y="0">SNOW HARE</tspan></text><text class="cls-10" transform="translate(233.24 348.36)"><tspan x="0" y="0">PTARMIGAN</tspan></text><text class="cls-10" transform="translate(383.01 318.46)"><tspan x="0" y="0">PEST APHID</tspan></text><text class="cls-10" transform="translate(401.98 348.53)"><tspan x="0" y="0">PREDATOR</tspan></text><text class="cls-10" transform="translate(409.53 378.53)"><tspan x="0" y="0">POLLINATOR</tspan></text><text class="cls-10" transform="translate(329.57 378.38)"><tspan class="cls-17" x="0" y="0">COMP</tspan><tspan x="27.58" y="0">ETITION</tspan></text><text class="cls-10" transform="translate(464.93 319.07)"><tspan x="0" y="0">CHANGE IN </tspan><tspan class="cls-16" x="0" y="10.79"> </tspan><tspan x="1.59" y="10.79">BEHAVIOUR</tspan></text><g><path class="cls-9" d="M445.56,276.9c-.38,.36-.95,.55-1.73,.55h-1.28v2.77h-.87v-6.63h2.14c.75,0,1.32,.18,1.71,.54,.39,.36,.58,.83,.58,1.4s-.19,1.01-.57,1.38Zm-.66-.48c.23-.21,.34-.51,.34-.89,0-.82-.47-1.23-1.41-1.23h-1.28v2.44h1.28c.48,0,.84-.1,1.07-.31Z"/><path class="cls-9" d="M450.7,280.21l-1.58-2.71h-1.05v2.71h-.87v-6.63h2.14c.5,0,.93,.09,1.27,.26,.35,.17,.61,.4,.78,.69,.17,.29,.26,.62,.26,1,0,.46-.13,.86-.39,1.21-.26,.35-.66,.58-1.19,.69l1.67,2.78h-1.04Zm-2.63-3.41h1.28c.47,0,.82-.12,1.06-.35,.24-.23,.35-.54,.35-.93s-.12-.7-.35-.91c-.23-.22-.59-.32-1.06-.32h-1.28v2.51Z"/><path class="cls-9" d="M453.86,274.29v2.22h2.42v.71h-2.42v2.28h2.7v.71h-3.57v-6.64h3.57v.71h-2.7Z"/><path class="cls-9" d="M461.82,273.99c.53,.27,.94,.66,1.22,1.16,.28,.5,.42,1.09,.42,1.77s-.14,1.27-.42,1.77c-.28,.5-.69,.88-1.22,1.14s-1.16,.4-1.88,.4h-2.06v-6.63h2.06c.72,0,1.35,.14,1.88,.4Zm.08,4.83c.45-.45,.68-1.09,.68-1.91s-.23-1.47-.68-1.93-1.11-.69-1.96-.69h-1.2v5.22h1.2c.86,0,1.51-.23,1.96-.68Z"/><path class="cls-9" d="M468.52,278.74h-2.89l-.53,1.48h-.91l2.4-6.6h1l2.39,6.6h-.91l-.53-1.48Zm-.25-.7l-1.2-3.35-1.2,3.35h2.4Z"/><path class="cls-9" d="M475.1,273.58v.7h-1.81v5.93h-.87v-5.93h-1.82v-.7h4.49Z"/><path class="cls-9" d="M477.49,279.85c-.51-.29-.91-.69-1.21-1.21s-.44-1.1-.44-1.75,.15-1.23,.44-1.75,.7-.92,1.21-1.21c.51-.29,1.07-.43,1.68-.43s1.19,.14,1.7,.43c.51,.29,.91,.69,1.2,1.2,.29,.51,.44,1.1,.44,1.75s-.15,1.24-.44,1.75c-.29,.51-.69,.92-1.2,1.2-.51,.29-1.07,.43-1.7,.43s-1.18-.14-1.68-.43Zm2.94-.64c.37-.22,.66-.52,.88-.92,.21-.4,.32-.86,.32-1.39s-.11-1-.32-1.39c-.21-.4-.5-.7-.87-.92-.37-.22-.79-.32-1.26-.32s-.89,.11-1.26,.32c-.37,.22-.66,.52-.87,.92s-.32,.86-.32,1.39,.11,.99,.32,1.39,.51,.71,.88,.92,.79,.32,1.25,.32,.88-.11,1.25-.32Z"/><path class="cls-9" d="M487.14,280.21l-1.58-2.71h-1.05v2.71h-.87v-6.63h2.14c.5,0,.93,.09,1.27,.26,.35,.17,.61,.4,.78,.69,.17,.29,.26,.62,.26,1,0,.46-.13,.86-.39,1.21-.26,.35-.66,.58-1.19,.69l1.67,2.78h-1.04Zm-2.63-3.41h1.28c.47,0,.82-.12,1.06-.35,.24-.23,.35-.54,.35-.93s-.12-.7-.35-.91c-.23-.22-.59-.32-1.06-.32h-1.28v2.51Z"/><path class="cls-9" d="M445.19,291l-1.58-2.71h-1.05v2.71h-.87v-6.63h2.14c.5,0,.92,.09,1.27,.26,.35,.17,.6,.4,.78,.69,.17,.29,.26,.62,.26,1,0,.46-.13,.86-.39,1.21s-.66,.58-1.19,.69l1.67,2.78h-1.04Zm-2.63-3.41h1.28c.47,0,.82-.12,1.06-.35s.35-.54,.35-.93-.12-.7-.35-.91c-.23-.22-.58-.32-1.06-.32h-1.28v2.51Z"/><path class="cls-9" d="M448.35,285.07v2.22h2.42v.71h-2.42v2.28h2.7v.71h-3.57v-6.64h3.57v.71h-2.7Z"/><path class="cls-9" d="M453.23,290.3h2.32v.7h-3.19v-6.63h.87v5.93Z"/><path class="cls-9" d="M457.34,285.07v2.22h2.42v.71h-2.42v2.28h2.7v.71h-3.57v-6.64h3.57v.71h-2.7Z"/><path class="cls-9" d="M465.28,289.53h-2.89l-.53,1.48h-.91l2.4-6.6h1l2.39,6.6h-.91l-.53-1.48Zm-.25-.7l-1.2-3.35-1.2,3.35h2.4Z"/><path class="cls-9" d="M468.7,290.84c-.35-.16-.62-.37-.81-.65-.2-.28-.3-.59-.3-.96h.92c.03,.31,.16,.57,.39,.79,.22,.21,.55,.32,.98,.32s.74-.1,.98-.31c.24-.21,.36-.47,.36-.79,0-.25-.07-.46-.21-.62-.14-.16-.31-.28-.52-.36-.21-.08-.49-.17-.85-.27-.44-.11-.79-.23-1.05-.34s-.49-.29-.68-.54c-.19-.24-.28-.57-.28-.99,0-.36,.09-.68,.28-.96,.19-.28,.44-.49,.78-.65,.33-.15,.71-.23,1.15-.23,.62,0,1.13,.16,1.53,.47s.62,.72,.67,1.24h-.95c-.03-.25-.16-.48-.4-.67-.23-.19-.54-.29-.93-.29-.36,0-.66,.09-.88,.28-.23,.19-.34,.45-.34,.79,0,.24,.07,.44,.21,.59s.3,.27,.5,.35c.2,.08,.48,.17,.84,.27,.44,.12,.79,.24,1.06,.36,.27,.12,.49,.3,.68,.54,.19,.24,.29,.58,.29,.99,0,.32-.09,.63-.26,.91-.17,.29-.43,.52-.76,.69s-.73,.27-1.19,.27-.83-.08-1.18-.23Z"/><path class="cls-9" d="M474.22,285.07v2.22h2.42v.71h-2.42v2.28h2.7v.71h-3.57v-6.64h3.57v.71h-2.7Z"/></g><g><path class="cls-9" d="M405.44,237.57c.29-.52,.69-.92,1.2-1.21,.5-.29,1.06-.44,1.68-.44,.72,0,1.35,.17,1.89,.52,.54,.35,.93,.84,1.18,1.48h-1.04c-.19-.4-.45-.71-.79-.92s-.76-.32-1.24-.32-.88,.11-1.25,.32c-.37,.22-.66,.52-.87,.92s-.31,.86-.31,1.39,.11,.99,.31,1.38,.5,.7,.87,.92c.37,.22,.79,.32,1.25,.32s.9-.11,1.24-.32c.35-.21,.61-.52,.79-.92h1.04c-.25,.63-.64,1.12-1.18,1.47-.54,.35-1.17,.52-1.89,.52-.62,0-1.18-.14-1.68-.43-.51-.29-.9-.69-1.2-1.2s-.44-1.09-.44-1.74,.15-1.23,.44-1.75Z"/><path class="cls-9" d="M413.28,242.27c-.51-.29-.91-.69-1.2-1.21s-.44-1.1-.44-1.75,.15-1.23,.44-1.75,.7-.92,1.2-1.21c.51-.29,1.07-.43,1.69-.43s1.19,.14,1.69,.43c.51,.29,.91,.69,1.2,1.2,.29,.51,.44,1.1,.44,1.75s-.15,1.24-.44,1.75c-.29,.51-.69,.92-1.2,1.2-.51,.29-1.07,.43-1.69,.43s-1.18-.14-1.69-.43Zm2.94-.64c.37-.22,.66-.52,.88-.92s.32-.86,.32-1.39-.11-1-.32-1.39-.5-.7-.87-.92c-.37-.22-.79-.32-1.26-.32s-.89,.11-1.26,.32c-.37,.22-.66,.52-.87,.92s-.32,.86-.32,1.39,.11,.99,.32,1.39,.5,.71,.88,.92,.79,.32,1.25,.32,.88-.11,1.25-.32Z"/><path class="cls-9" d="M425.45,236.05v6.59h-.87v-4.91l-2.19,4.91h-.61l-2.2-4.92v4.92h-.87v-6.59h.93l2.44,5.44,2.44-5.44h.92Z"/><path class="cls-9" d="M430.08,239.32c-.38,.36-.95,.55-1.73,.55h-1.28v2.77h-.87v-6.63h2.14c.75,0,1.32,.18,1.71,.54,.39,.36,.58,.83,.58,1.4s-.19,1.01-.57,1.38Zm-.66-.48c.23-.21,.34-.51,.34-.89,0-.82-.47-1.23-1.41-1.23h-1.28v2.44h1.28c.48,0,.84-.1,1.07-.31Z"/><path class="cls-9" d="M431.87,236.71v2.22h2.42v.71h-2.42v2.28h2.7v.71h-3.57v-6.64h3.57v.71h-2.7Z"/><path class="cls-9" d="M439.73,236v.7h-1.81v5.93h-.87v-5.93h-1.82v-.7h4.49Z"/><path class="cls-9" d="M441.43,236v6.63h-.87v-6.63h.87Z"/><path class="cls-9" d="M446.75,236v.7h-1.81v5.93h-.87v-5.93h-1.82v-.7h4.49Z"/><path class="cls-9" d="M448.9,242.27c-.51-.29-.91-.69-1.2-1.21s-.44-1.1-.44-1.75,.15-1.23,.44-1.75,.7-.92,1.2-1.21c.51-.29,1.07-.43,1.69-.43s1.19,.14,1.69,.43c.51,.29,.91,.69,1.2,1.2,.29,.51,.44,1.1,.44,1.75s-.15,1.24-.44,1.75c-.29,.51-.69,.92-1.2,1.2-.51,.29-1.07,.43-1.69,.43s-1.18-.14-1.69-.43Zm2.94-.64c.37-.22,.66-.52,.88-.92s.32-.86,.32-1.39-.11-1-.32-1.39-.5-.7-.87-.92c-.37-.22-.79-.32-1.26-.32s-.89,.11-1.26,.32c-.37,.22-.66,.52-.87,.92s-.32,.86-.32,1.39,.11,.99,.32,1.39,.5,.71,.88,.92,.79,.32,1.25,.32,.88-.11,1.25-.32Z"/><path class="cls-9" d="M458.31,242.64l-1.58-2.71h-1.05v2.71h-.87v-6.63h2.14c.5,0,.93,.09,1.27,.26,.35,.17,.61,.4,.78,.69,.17,.29,.26,.62,.26,1,0,.46-.13,.86-.39,1.21-.26,.35-.66,.58-1.19,.69l1.67,2.78h-1.04Zm-2.63-3.41h1.28c.47,0,.82-.12,1.06-.35,.24-.23,.35-.54,.35-.93s-.12-.7-.35-.91c-.23-.22-.59-.32-1.06-.32h-1.28v2.51Z"/><path class="cls-9" d="M410.41,253.42l-1.58-2.71h-1.05v2.71h-.87v-6.63h2.14c.5,0,.93,.09,1.27,.26,.35,.17,.61,.4,.78,.69,.17,.29,.26,.62,.26,1,0,.46-.13,.86-.39,1.21-.26,.35-.66,.58-1.19,.69l1.67,2.78h-1.04Zm-2.63-3.41h1.28c.47,0,.82-.12,1.06-.35,.24-.23,.35-.54,.35-.93s-.12-.7-.35-.91c-.23-.22-.59-.32-1.06-.32h-1.28v2.51Z"/><path class="cls-9" d="M413.33,247.49v2.22h2.42v.71h-2.42v2.28h2.7v.71h-3.57v-6.64h3.57v.71h-2.7Z"/><path class="cls-9" d="M417.97,252.72h2.32v.7h-3.19v-6.63h.87v5.93Z"/><path class="cls-9" d="M421.85,247.49v2.22h2.42v.71h-2.42v2.28h2.7v.71h-3.57v-6.64h3.57v.71h-2.7Z"/><path class="cls-9" d="M429.55,251.95h-2.89l-.53,1.48h-.91l2.4-6.6h1l2.39,6.6h-.91l-.53-1.48Zm-.25-.7l-1.2-3.35-1.2,3.35h2.4Z"/><path class="cls-9" d="M432.73,253.26c-.35-.16-.62-.37-.81-.65-.2-.28-.3-.59-.3-.96h.92c.03,.31,.16,.57,.38,.79,.22,.21,.55,.32,.98,.32s.74-.1,.98-.31,.36-.47,.36-.79c0-.25-.07-.46-.21-.62-.14-.16-.31-.28-.52-.36-.21-.08-.49-.17-.85-.27-.44-.11-.79-.23-1.05-.34s-.49-.29-.68-.54c-.19-.24-.28-.57-.28-.99,0-.36,.09-.68,.28-.96s.44-.49,.78-.65,.71-.23,1.15-.23c.62,0,1.13,.16,1.53,.47s.62,.72,.67,1.24h-.95c-.03-.25-.17-.48-.4-.67s-.54-.29-.93-.29c-.36,0-.66,.09-.88,.28-.23,.19-.34,.45-.34,.79,0,.24,.07,.44,.21,.59,.13,.15,.3,.27,.5,.35,.2,.08,.48,.17,.84,.27,.44,.12,.79,.24,1.06,.36,.27,.12,.49,.3,.69,.54,.19,.24,.29,.58,.29,.99,0,.32-.09,.63-.26,.91-.17,.29-.43,.52-.76,.69-.34,.18-.73,.27-1.19,.27s-.83-.08-1.17-.23Z"/><path class="cls-9" d="M438.02,247.49v2.22h2.42v.71h-2.42v2.28h2.7v.71h-3.57v-6.64h3.57v.71h-2.7Z"/></g><text class="cls-10" transform="translate(478.26 357.01)"><tspan class="cls-17" x="0" y="0">IN</tspan><tspan class="cls-19" x="8.56" y="0">TERRUPTED</tspan><tspan class="cls-16" x="0" y="10.79"> </tspan><tspan class="cls-12" x="1.59" y="10.79">POLLEN</tspan><tspan class="cls-16" x="0" y="21.58"> </tspan><tspan class="cls-12" x="1.59" y="21.58">TRANSFER</tspan></text><text class="cls-10" transform="translate(538.53 319.07)"><tspan class="cls-17"><tspan x="0" y="0">VEGETATION</tspan></tspan><tspan class="cls-16" x="0" y="10.79"> </tspan><tspan class="cls-18" x="1.59" y="10.79">COMPOSITION</tspan></text><text class="cls-10" transform="translate(515.28 269.47)"><tspan x="0" y="0">NICHE</tspan><tspan class="cls-15" x="0" y="10.79">UNOCC</tspan><tspan class="cls-18" x="31.72" y="10.79">UPI</tspan><tspan class="cls-17" x="44.57" y="10.79">ED</tspan></text><text class="cls-10" transform="translate(554.34 357.01)"><tspan class="cls-17"><tspan x="0" y="0">NET </tspan></tspan><tspan class="cls-18"><tspan x="0" y="10.79">ECOSYSTEM</tspan></tspan><tspan class="cls-18"><tspan x="0" y="21.58">PRODUCTION</tspan></tspan></text><text class="cls-10" transform="translate(779.68 367.6)"><tspan x="0" y="0">INDUSTRIAL</tspan><tspan x="0" y="10.79">VALUE</tspan></text><text class="cls-10" transform="translate(764.46 319.19)"><tspan class="cls-18"><tspan x="0" y="0">RECREATIONAL</tspan></tspan><tspan class="cls-16" x="0" y="10.79"> </tspan><tspan x="1.59" y="10.79">VALUE</tspan></text><text class="cls-10" transform="translate(748.74 269.94)"><tspan x="0" y="0">COMMERCIAL</tspan><tspan class="cls-16" x="0" y="10.79"> </tspan><tspan x="1.59" y="10.79">VALUE</tspan></text><text class="cls-10" transform="translate(733.59 226.91)"><tspan x="0" y="0">RELIGIOUS</tspan><tspan class="cls-16" x="0" y="10.79"> </tspan><tspan x="1.59" y="10.79">VALUE</tspan></text><text class="cls-11" transform="translate(626.4 192.57)"><tspan x="0" y="0">TOURISM</tspan></text><text class="cls-10" transform="translate(647.62 225.78)"><tspan x="0" y="0">ECONOMY</tspan></text><text class="cls-11" transform="translate(678.53 269.49)"><tspan x="0" y="0">HUMAN</tspan><tspan x="0" y="10.79">HEALTH</tspan></text><text class="cls-10" transform="translate(693.32 319.04)"><tspan x="0" y="0">SOCIETAL</tspan><tspan class="cls-17"><tspan x="0" y="10.79">STRUCTURE</tspan></tspan></text><text class="cls-10" transform="translate(705.1 367.79)"><tspan x="0" y="0">SYSTEMS </tspan><tspan x="0" y="10.79">OF TRADE</tspan></text><text class="cls-10" transform="translate(629.01 357)"><tspan x="0" y="0">ATMOS-</tspan><tspan class="cls-6"><tspan x="0" y="10.79">PHERIC</tspan></tspan><tspan class="cls-17"><tspan x="0" y="21.57">REGULATION</tspan></tspan></text><text class="cls-10" transform="translate(568.6 228.67)"><tspan x="0" y="0">NUTRIENT</tspan><tspan class="cls-16" x="0" y="10.79"> </tspan><tspan class="cls-18" x="1.59" y="10.79">CIRCULATION</tspan></text><text class="cls-10" transform="translate(619.78 319.04)"><tspan x="0" y="0">KEYSTONE</tspan><tspan x="0" y="10.79">SPECIES</tspan></text><text class="cls-10" transform="translate(538.45 191.08)"><tspan class="cls-17"><tspan x="0" y="0">CARBON</tspan></tspan><tspan class="cls-16" x="0" y="10.79"> </tspan><tspan class="cls-12" x="1.59" y="10.79">STORAGE</tspan></text><text class="cls-10" transform="translate(321.37 348.57)"><tspan x="0" y="0">PREDATION</tspan></text><text class="cls-10" transform="translate(257.92 291.03)"><tspan x="0" y="0">SYMBIOSIS</tspan></text><text class="cls-10" transform="translate(292.52 318.46)"><tspan x="0" y="0">PARASITISM</tspan></text><text class="cls-10" transform="translate(195.05 459.66)"><tspan x="0" y="0">RANGE </tspan><tspan class="cls-7"><tspan x="0" y="10.79">SHIFTING</tspan></tspan><tspan class="cls-15"><tspan x="0" y="21.58">SPECIES</tspan></tspan></text><text class="cls-10" transform="translate(261.2 459.74)"><tspan x="0" y="0">ENCOUNTERS</tspan></text><g><path class="cls-9" d="M340.45,457.11c.2,.16,.36,.36,.48,.59,.12,.24,.18,.49,.18,.75,0,.34-.08,.64-.26,.91-.17,.27-.42,.48-.75,.64-.33,.16-.71,.23-1.16,.23h-2.47v-6.63h2.38c.45,0,.83,.07,1.15,.22,.32,.15,.55,.35,.71,.6,.16,.25,.24,.54,.24,.86,0,.39-.11,.72-.32,.98-.21,.26-.49,.44-.84,.56,.24,.04,.46,.14,.66,.29Zm-3.12-.65h1.46c.41,0,.72-.09,.94-.29,.22-.19,.33-.45,.33-.79s-.11-.6-.33-.79c-.22-.19-.54-.29-.96-.29h-1.44v2.15Zm2.54,2.75c.24-.2,.36-.49,.36-.85s-.13-.66-.38-.87c-.25-.21-.59-.32-1.02-.32h-1.5v2.34h1.53c.43,0,.77-.1,1.01-.3Z"/><path class="cls-9" d="M342.69,453.6v6.63h-.87v-6.63h.87Z"/><path class="cls-9" d="M345.01,459.87c-.51-.29-.91-.69-1.2-1.21s-.44-1.1-.44-1.75,.15-1.23,.44-1.75,.7-.92,1.2-1.21c.51-.29,1.07-.43,1.68-.43s1.19,.14,1.69,.43c.51,.29,.91,.69,1.2,1.2s.44,1.1,.44,1.75-.15,1.24-.44,1.75c-.29,.51-.69,.92-1.2,1.2s-1.07,.43-1.69,.43-1.18-.14-1.68-.43Zm2.94-.64c.37-.22,.66-.52,.88-.92,.21-.4,.32-.86,.32-1.39s-.11-1-.32-1.39c-.21-.4-.5-.7-.87-.92-.37-.22-.79-.32-1.26-.32s-.89,.11-1.26,.32c-.37,.22-.66,.52-.87,.92-.21,.4-.32,.86-.32,1.39s.11,.99,.32,1.39c.21,.4,.5,.71,.88,.92,.37,.22,.79,.32,1.25,.32s.88-.11,1.25-.32Z"/><path class="cls-9" d="M354.78,453.6v.7h-1.81v5.93h-.87v-5.93h-1.82v-.7h4.49Z"/><path class="cls-9" d="M356.24,453.6v6.63h-.87v-6.63h.87Z"/><path class="cls-9" d="M357.35,455.16c.29-.52,.69-.92,1.19-1.21,.5-.29,1.06-.44,1.68-.44,.72,0,1.35,.17,1.89,.52,.54,.35,.93,.84,1.18,1.48h-1.04c-.18-.4-.45-.71-.79-.92s-.76-.32-1.24-.32-.88,.11-1.25,.32-.66,.52-.87,.92c-.21,.4-.31,.86-.31,1.39s.1,.99,.31,1.39c.21,.4,.5,.7,.87,.92s.78,.32,1.25,.32,.9-.11,1.24-.32,.61-.52,.79-.92h1.04c-.25,.63-.64,1.12-1.18,1.47-.54,.35-1.17,.52-1.89,.52-.62,0-1.18-.14-1.68-.43-.5-.29-.9-.69-1.19-1.2-.29-.51-.44-1.09-.44-1.74s.15-1.23,.44-1.75Z"/><path class="cls-9" d="M337.33,464.39v6.63h-.87v-6.63h.87Z"/><path class="cls-9" d="M343.55,471.02h-.87l-3.48-5.28v5.28h-.87v-6.64h.87l3.48,5.27v-5.27h.87v6.64Z"/><path class="cls-9" d="M348.63,464.39v.7h-1.81v5.93h-.87v-5.93h-1.82v-.7h4.49Z"/><path class="cls-9" d="M350.09,465.09v2.22h2.42v.71h-2.42v2.28h2.7v.71h-3.57v-6.64h3.57v.71h-2.7Z"/><path class="cls-9" d="M357.12,471.02l-1.58-2.71h-1.05v2.71h-.87v-6.63h2.14c.5,0,.92,.08,1.27,.26,.35,.17,.6,.4,.78,.69,.17,.29,.26,.62,.26,1,0,.46-.13,.86-.4,1.21-.26,.35-.66,.58-1.18,.7l1.67,2.78h-1.04Zm-2.63-3.41h1.28c.47,0,.82-.12,1.06-.35s.35-.54,.35-.93-.12-.7-.35-.91-.58-.32-1.06-.32h-1.28v2.51Z"/><path class="cls-9" d="M362.86,469.54h-2.89l-.53,1.48h-.91l2.4-6.6h1l2.39,6.6h-.91l-.53-1.48Zm-.25-.7l-1.2-3.35-1.2,3.35h2.4Z"/><path class="cls-9" d="M364.99,465.95c.29-.52,.69-.92,1.19-1.21,.5-.29,1.06-.44,1.68-.44,.72,0,1.35,.17,1.89,.52,.54,.35,.93,.84,1.18,1.48h-1.04c-.18-.4-.45-.71-.79-.92s-.76-.32-1.24-.32-.88,.11-1.25,.32-.66,.52-.87,.92c-.21,.4-.31,.86-.31,1.39s.1,.99,.31,1.39c.21,.4,.5,.7,.87,.92s.78,.32,1.25,.32,.9-.11,1.24-.32,.61-.52,.79-.92h1.04c-.25,.63-.64,1.12-1.18,1.47-.54,.35-1.17,.52-1.89,.52-.62,0-1.18-.14-1.68-.43-.5-.29-.9-.69-1.19-1.2-.29-.51-.44-1.09-.44-1.74s.15-1.23,.44-1.75Z"/><path class="cls-9" d="M375.83,464.39v.7h-1.81v5.93h-.87v-5.93h-1.82v-.7h4.49Z"/><path class="cls-9" d="M377.29,464.39v6.63h-.87v-6.63h.87Z"/><path class="cls-9" d="M379.61,470.65c-.51-.29-.91-.69-1.2-1.21s-.44-1.1-.44-1.75,.15-1.23,.44-1.75,.7-.92,1.2-1.21c.51-.29,1.07-.43,1.68-.43s1.19,.14,1.69,.43c.51,.29,.91,.69,1.2,1.2s.44,1.1,.44,1.75-.15,1.24-.44,1.75c-.29,.51-.69,.92-1.2,1.2s-1.07,.43-1.69,.43-1.18-.14-1.68-.43Zm2.94-.64c.37-.22,.66-.52,.88-.92,.21-.4,.32-.86,.32-1.39s-.11-1-.32-1.39c-.21-.4-.5-.7-.87-.92s-.79-.32-1.26-.32-.89,.11-1.26,.32-.66,.52-.87,.92-.32,.86-.32,1.39,.11,.99,.32,1.39c.21,.4,.5,.71,.88,.92s.79,.32,1.25,.32,.88-.11,1.25-.32Z"/><path class="cls-9" d="M390.51,471.02h-.87l-3.48-5.28v5.28h-.87v-6.64h.87l3.48,5.27v-5.27h.87v6.64Z"/></g><g><path class="cls-9" d="M414.09,454.3v2.22h2.42v.71h-2.42v2.28h2.7v.71h-3.57v-6.64h3.57v.71h-2.7Z"/><path class="cls-9" d="M417.74,455.16c.29-.52,.69-.92,1.2-1.21,.5-.29,1.06-.44,1.68-.44,.72,0,1.35,.17,1.89,.52,.54,.35,.93,.84,1.18,1.48h-1.04c-.18-.4-.45-.71-.79-.92s-.76-.32-1.24-.32-.88,.11-1.25,.32-.66,.52-.87,.92c-.21,.4-.31,.86-.31,1.39s.1,.99,.31,1.39c.21,.4,.5,.7,.87,.92s.78,.32,1.25,.32,.9-.11,1.24-.32,.61-.52,.79-.92h1.04c-.25,.63-.64,1.12-1.18,1.47-.54,.35-1.17,.52-1.89,.52-.62,0-1.18-.14-1.68-.43-.5-.29-.9-.69-1.2-1.2-.29-.51-.44-1.09-.44-1.74s.15-1.23,.44-1.75Z"/><path class="cls-9" d="M425.82,459.87c-.51-.29-.91-.69-1.2-1.21s-.44-1.1-.44-1.75,.15-1.23,.44-1.75,.7-.92,1.2-1.21c.51-.29,1.07-.43,1.68-.43s1.19,.14,1.69,.43c.51,.29,.91,.69,1.2,1.2s.44,1.1,.44,1.75-.15,1.24-.44,1.75c-.29,.51-.69,.92-1.2,1.2s-1.07,.43-1.69,.43-1.18-.14-1.68-.43Zm2.94-.64c.37-.22,.66-.52,.88-.92,.21-.4,.32-.86,.32-1.39s-.11-1-.32-1.39c-.21-.4-.5-.7-.87-.92s-.79-.32-1.26-.32-.89,.11-1.26,.32-.66,.52-.87,.92-.32,.86-.32,1.39,.11,.99,.32,1.39c.21,.4,.5,.71,.88,.92s.79,.32,1.25,.32,.88-.11,1.25-.32Z"/><path class="cls-9" d="M432.37,459.53h2.32v.7h-3.19v-6.63h.87v5.93Z"/><path class="cls-9" d="M436.46,459.87c-.51-.29-.91-.69-1.2-1.21s-.44-1.1-.44-1.75,.15-1.23,.44-1.75,.7-.92,1.2-1.21c.51-.29,1.07-.43,1.68-.43s1.19,.14,1.69,.43c.51,.29,.91,.69,1.2,1.2s.44,1.1,.44,1.75-.15,1.24-.44,1.75c-.29,.51-.69,.92-1.2,1.2s-1.07,.43-1.69,.43-1.18-.14-1.68-.43Zm2.94-.64c.37-.22,.66-.52,.88-.92,.21-.4,.32-.86,.32-1.39s-.11-1-.32-1.39c-.21-.4-.5-.7-.87-.92s-.79-.32-1.26-.32-.89,.11-1.26,.32-.66,.52-.87,.92-.32,.86-.32,1.39,.11,.99,.32,1.39c.21,.4,.5,.71,.88,.92s.79,.32,1.25,.32,.88-.11,1.25-.32Z"/><path class="cls-9" d="M447.17,455.52c-.18-.39-.45-.69-.8-.9-.35-.21-.75-.32-1.22-.32s-.88,.11-1.25,.32c-.37,.21-.66,.52-.88,.91s-.32,.86-.32,1.38,.11,.98,.32,1.37,.5,.7,.88,.91,.79,.32,1.25,.32c.65,0,1.18-.19,1.6-.58,.42-.39,.66-.91,.73-1.57h-2.65v-.71h3.57v.67c-.05,.54-.22,1.04-.51,1.5-.29,.45-.68,.81-1.15,1.08s-1.01,.39-1.59,.39c-.62,0-1.18-.14-1.68-.43s-.91-.69-1.2-1.2-.44-1.09-.44-1.74,.15-1.23,.44-1.75,.7-.92,1.2-1.21c.51-.29,1.07-.43,1.68-.43,.71,0,1.33,.17,1.87,.52,.54,.35,.94,.84,1.18,1.47h-1.04Z"/><path class="cls-9" d="M449.94,453.6v6.63h-.87v-6.63h.87Z"/><path class="cls-9" d="M451.06,455.16c.29-.52,.69-.92,1.2-1.21,.5-.29,1.06-.44,1.68-.44,.72,0,1.35,.17,1.89,.52,.54,.35,.93,.84,1.18,1.48h-1.04c-.18-.4-.45-.71-.79-.92s-.76-.32-1.24-.32-.88,.11-1.25,.32-.66,.52-.87,.92c-.21,.4-.31,.86-.31,1.39s.1,.99,.31,1.39c.21,.4,.5,.7,.87,.92s.78,.32,1.25,.32,.9-.11,1.24-.32,.61-.52,.79-.92h1.04c-.25,.63-.64,1.12-1.18,1.47-.54,.35-1.17,.52-1.89,.52-.62,0-1.18-.14-1.68-.43-.5-.29-.9-.69-1.2-1.2-.29-.51-.44-1.09-.44-1.74s.15-1.23,.44-1.75Z"/><path class="cls-9" d="M461.73,458.76h-2.89l-.53,1.48h-.91l2.4-6.6h1l2.39,6.6h-.91l-.53-1.48Zm-.25-.7l-1.2-3.35-1.2,3.35h2.4Z"/><path class="cls-9" d="M464.62,459.53h2.32v.7h-3.19v-6.63h.87v5.93Z"/><path class="cls-9" d="M416.71,471.02l-1.58-2.71h-1.05v2.71h-.87v-6.63h2.14c.5,0,.92,.08,1.27,.26,.35,.17,.6,.4,.78,.69s.26,.62,.26,1c0,.46-.13,.86-.39,1.21-.26,.35-.66,.58-1.19,.7l1.67,2.78h-1.04Zm-2.63-3.41h1.28c.47,0,.82-.12,1.06-.35,.24-.23,.35-.54,.35-.93s-.12-.7-.35-.91-.58-.32-1.06-.32h-1.28v2.51Z"/><path class="cls-9" d="M419.86,470.65c-.51-.29-.91-.69-1.2-1.21s-.44-1.1-.44-1.75,.15-1.23,.44-1.75,.7-.92,1.2-1.21c.51-.29,1.07-.43,1.68-.43s1.19,.14,1.69,.43c.51,.29,.91,.69,1.2,1.2s.44,1.1,.44,1.75-.15,1.24-.44,1.75c-.29,.51-.69,.92-1.2,1.2s-1.07,.43-1.69,.43-1.18-.14-1.68-.43Zm2.94-.64c.37-.22,.66-.52,.88-.92,.21-.4,.32-.86,.32-1.39s-.11-1-.32-1.39c-.21-.4-.5-.7-.87-.92s-.79-.32-1.26-.32-.89,.11-1.26,.32-.66,.52-.87,.92-.32,.86-.32,1.39,.11,.99,.32,1.39c.21,.4,.5,.71,.88,.92s.79,.32,1.25,.32,.88-.11,1.25-.32Z"/><path class="cls-9" d="M426.4,470.32h2.32v.7h-3.19v-6.63h.87v5.93Z"/><path class="cls-9" d="M430.04,465.09v2.22h2.42v.71h-2.42v2.28h2.7v.71h-3.57v-6.64h3.57v.71h-2.7Z"/></g><text class="cls-10" transform="translate(489.17 460.35)"><tspan x="0" y="0">TROPHIC </tspan><tspan x="0" y="10.79">CASCADE</tspan></text><g><path class="cls-9" d="M560.46,454.3v2.22h2.42v.71h-2.42v2.28h2.7v.71h-3.57v-6.64h3.57v.71h-2.7Z"/><path class="cls-9" d="M564.59,455.16c.29-.52,.69-.92,1.2-1.21,.5-.29,1.06-.44,1.68-.44,.72,0,1.35,.17,1.89,.52,.54,.35,.93,.84,1.18,1.48h-1.04c-.18-.4-.45-.71-.79-.92s-.76-.32-1.24-.32-.88,.11-1.25,.32-.66,.52-.87,.92c-.21,.4-.31,.86-.31,1.39s.1,.99,.31,1.39c.21,.4,.5,.7,.87,.92s.78,.32,1.25,.32,.9-.11,1.24-.32,.61-.52,.79-.92h1.04c-.25,.63-.64,1.12-1.18,1.47-.54,.35-1.17,.52-1.89,.52-.62,0-1.18-.14-1.68-.43-.5-.29-.9-.69-1.2-1.2-.29-.51-.44-1.09-.44-1.74s.15-1.23,.44-1.75Z"/><path class="cls-9" d="M573.15,459.87c-.51-.29-.91-.69-1.2-1.21s-.44-1.1-.44-1.75,.15-1.23,.44-1.75,.7-.92,1.2-1.21c.51-.29,1.07-.43,1.68-.43s1.19,.14,1.69,.43c.51,.29,.91,.69,1.2,1.2s.44,1.1,.44,1.75-.15,1.24-.44,1.75c-.29,.51-.69,.92-1.2,1.2s-1.07,.43-1.69,.43-1.18-.14-1.68-.43Zm2.94-.64c.37-.22,.66-.52,.88-.92,.21-.4,.32-.86,.32-1.39s-.11-1-.32-1.39c-.21-.4-.5-.7-.87-.92s-.79-.32-1.26-.32-.89,.11-1.26,.32-.66,.52-.87,.92-.32,.86-.32,1.39,.11,.99,.32,1.39c.21,.4,.5,.71,.88,.92s.79,.32,1.25,.32,.88-.11,1.25-.32Z"/><path class="cls-9" d="M580.23,460.06c-.35-.16-.62-.37-.81-.65-.2-.28-.3-.59-.3-.96h.92c.03,.31,.16,.57,.39,.79,.22,.21,.55,.32,.98,.32s.74-.1,.98-.31c.24-.21,.36-.47,.36-.79,0-.25-.07-.46-.21-.62-.14-.16-.31-.28-.52-.36-.21-.08-.49-.17-.85-.27-.44-.11-.79-.23-1.05-.34s-.49-.29-.68-.54-.28-.57-.28-.99c0-.36,.09-.68,.28-.96,.18-.28,.44-.5,.78-.65,.33-.15,.71-.23,1.15-.23,.62,0,1.13,.16,1.53,.47,.4,.31,.62,.72,.67,1.24h-.95c-.03-.25-.17-.48-.4-.67-.23-.19-.54-.29-.93-.29-.36,0-.66,.09-.88,.28-.23,.19-.34,.45-.34,.79,0,.24,.07,.44,.21,.59,.14,.15,.3,.27,.5,.35s.48,.17,.84,.27c.44,.12,.79,.24,1.06,.36,.27,.12,.49,.3,.68,.54s.29,.58,.29,.99c0,.32-.09,.63-.26,.91-.17,.29-.43,.52-.76,.69-.34,.18-.73,.27-1.19,.27s-.83-.08-1.17-.23Z"/><path class="cls-9" d="M589.54,453.6l-2.16,4.13v2.5h-.87v-2.5l-2.17-4.13h.96l1.64,3.36,1.64-3.36h.96Z"/><path class="cls-9" d="M591.38,460.06c-.35-.16-.62-.37-.81-.65-.2-.28-.3-.59-.3-.96h.92c.03,.31,.16,.57,.39,.79,.22,.21,.55,.32,.98,.32s.74-.1,.98-.31c.24-.21,.36-.47,.36-.79,0-.25-.07-.46-.21-.62-.14-.16-.31-.28-.52-.36-.21-.08-.49-.17-.85-.27-.44-.11-.79-.23-1.05-.34s-.49-.29-.68-.54-.28-.57-.28-.99c0-.36,.09-.68,.28-.96,.18-.28,.44-.5,.78-.65,.33-.15,.71-.23,1.15-.23,.62,0,1.13,.16,1.53,.47,.4,.31,.62,.72,.67,1.24h-.95c-.03-.25-.17-.48-.4-.67-.23-.19-.54-.29-.93-.29-.36,0-.66,.09-.88,.28-.23,.19-.34,.45-.34,.79,0,.24,.07,.44,.21,.59,.14,.15,.3,.27,.5,.35s.48,.17,.84,.27c.44,.12,.79,.24,1.06,.36,.27,.12,.49,.3,.68,.54s.29,.58,.29,.99c0,.32-.09,.63-.26,.91-.17,.29-.43,.52-.76,.69-.34,.18-.73,.27-1.19,.27s-.83-.08-1.17-.23Z"/><path class="cls-9" d="M600.12,453.6v.7h-1.81v5.93h-.87v-5.93h-1.82v-.7h4.49Z"/><path class="cls-9" d="M602.05,454.3v2.22h2.42v.71h-2.42v2.28h2.7v.71h-3.57v-6.64h3.57v.71h-2.7Z"/><path class="cls-9" d="M612.8,453.65v6.59h-.87v-4.91l-2.19,4.91h-.61l-2.2-4.92v4.92h-.87v-6.59h.93l2.44,5.44,2.44-5.44h.92Z"/><path class="cls-9" d="M560.46,464.39v6.63h-.87v-6.63h.87Z"/><path class="cls-9" d="M568.66,464.43v6.59h-.87v-4.91l-2.19,4.91h-.61l-2.2-4.92v4.92h-.87v-6.59h.93l2.44,5.44,2.44-5.44h.92Z"/><path class="cls-9" d="M574,467.7c-.38,.37-.95,.55-1.73,.55h-1.28v2.77h-.87v-6.63h2.14c.75,0,1.32,.18,1.71,.54,.39,.36,.58,.83,.58,1.4s-.19,1.01-.57,1.38Zm-.66-.48c.23-.21,.34-.51,.34-.89,0-.82-.47-1.23-1.41-1.23h-1.28v2.44h1.28c.48,0,.84-.1,1.07-.31Z"/><path class="cls-9" d="M579.56,469.54h-2.89l-.53,1.48h-.91l2.4-6.6h1l2.39,6.6h-.91l-.53-1.48Zm-.25-.7l-1.2-3.35-1.2,3.35h2.4Z"/><path class="cls-9" d="M582.17,465.95c.29-.52,.69-.92,1.2-1.21,.5-.29,1.06-.44,1.68-.44,.72,0,1.35,.17,1.89,.52,.54,.35,.93,.84,1.18,1.48h-1.04c-.18-.4-.45-.71-.79-.92s-.76-.32-1.24-.32-.88,.11-1.25,.32-.66,.52-.87,.92c-.21,.4-.31,.86-.31,1.39s.1,.99,.31,1.39c.21,.4,.5,.7,.87,.92s.78,.32,1.25,.32,.9-.11,1.24-.32,.61-.52,.79-.92h1.04c-.25,.63-.64,1.12-1.18,1.47-.54,.35-1.17,.52-1.89,.52-.62,0-1.18-.14-1.68-.43-.5-.29-.9-.69-1.2-1.2-.29-.51-.44-1.09-.44-1.74s.15-1.23,.44-1.75Z"/><path class="cls-9" d="M593.49,464.39v.7h-1.81v5.93h-.87v-5.93h-1.82v-.7h4.49Z"/></g><text class="cls-11" transform="translate(629.33 460.37)"><tspan x="0" y="0">BOOMERANG</tspan><tspan x="0" y="10.79">EFFECT</tspan></text><text class="cls-10" transform="translate(784.82 459.72)"><tspan x="0" y="0">SOCIETAL</tspan><tspan x="0" y="10.79">VALUE</tspan></text><text class="cls-11" transform="translate(707.35 459.72)"><tspan x="0" y="0">SOCIO-</tspan><tspan x="0" y="10.79">ECONOMIC</tspan><tspan x="0" y="21.58">IMPACT</tspan></text><text class="cls-10" transform="translate(354 290.92)"><tspan x="0" y="0">FILTER FEEDER</tspan></text><text class="cls-10" transform="translate(595.3 269.52)"><tspan x="0" y="0">SOIL</tspan><tspan x="0" y="10.79">FORMATION</tspan></text><path class="cls-9" d="M192.65,440.4c1.71-4.77,2.7-10.06,2.9-15.19,.38-9.96-2.05-19.47-7.29-27.91h2.57c4.96,8.45,7.37,18.11,7,27.97-.2,5.17-1.15,10.37-2.84,15.19l-2.33-.06Z"/></g><circle class="cls-4" cx="172.28" cy="425.43" r="87.92" transform="translate(-267.31 557.46) rotate(-84.67)"/><polygon class="cls-9" points="873.43 405.22 894.69 418.35 873.43 430.98 878.07 418.1 873.43 405.22"/><text class="cls-10" transform="translate(322.3 260.47)"><tspan x="0" y="0">CARNIVORE</tspan></text></svg>